<?xml version="1.0" standalone="no"?>
<!DOCTYPE svg PUBLIC "-//W3C//DTD SVG 20010904//EN"
 "http://www.w3.org/TR/2001/REC-SVG-20010904/DTD/svg10.dtd">
<svg version="1.0" xmlns="http://www.w3.org/2000/svg"
 width="256.000000pt" height="175.000000pt" viewBox="0 0 256.000000 175.000000"
 preserveAspectRatio="xMidYMid meet">

<g transform="translate(0.000000,175.000000) scale(0.100000,-0.100000)"
fill="white" stroke="none">
<path d="M1800 1528 c-2 -10 -4 -22 -5 -28 -1 -5 -3 -13 -4 -17 0 -3 -12 4
-25 16 -21 20 -25 21 -39 6 -10 -10 -18 -11 -22 -5 -5 8 -11 8 -20 0 -11 -9
-21 -6 -42 10 -28 20 -63 19 -63 -1 0 -5 -13 -9 -29 -9 -20 0 -34 -8 -45 -25
-9 -13 -29 -31 -45 -39 -15 -8 -34 -30 -41 -48 -7 -18 -19 -40 -27 -49 -21
-26 -60 -185 -67 -277 -4 -49 -13 -93 -21 -105 -17 -24 -20 -63 -6 -71 5 -4 4
-19 -2 -37 -10 -26 -9 -33 5 -43 11 -8 16 -23 14 -42 -2 -16 0 -33 4 -39 17
-23 100 -300 95 -316 -4 -11 -2 -19 4 -19 6 0 11 5 11 11 0 5 5 7 10 4 6 -4 8
-9 6 -13 -15 -24 68 -66 95 -49 19 12 89 0 89 -15 0 -7 5 -6 15 2 8 6 19 9 26
5 20 -13 -13 -25 -51 -19 -30 4 -32 3 -16 -7 10 -6 39 -9 67 -7 29 3 50 1 52
-6 2 -5 16 2 33 17 l29 27 8 -22 c4 -12 6 -27 3 -35 -3 -7 -1 -15 5 -18 18
-11 6 -70 -20 -99 -18 -21 -10 -17 28 14 37 30 62 61 78 97 31 67 28 87 -15
91 l-32 3 0 68 c0 61 3 72 33 112 50 67 64 91 71 127 4 17 11 32 15 32 4 0 17
20 29 45 23 48 29 111 11 117 -8 3 -5 43 10 134 11 72 23 137 26 145 3 8 -6
30 -20 49 -14 19 -25 40 -25 47 0 7 -4 13 -8 13 -10 0 -14 21 -13 78 1 40 -5
48 -33 43 -9 -2 -4 51 8 84 7 18 5 17 -13 -3 -11 -13 -29 -25 -40 -27 -18 -3
-19 -1 -10 22 11 31 -3 45 -37 37 -17 -4 -24 1 -32 23 -7 19 -11 22 -12 11z
m-252 -343 c15 -2 29 -4 31 -4 10 -2 -34 -41 -46 -41 -26 0 -1 -36 27 -38 3
-1 12 -3 20 -6 65 -21 91 -27 98 -22 11 7 122 -24 122 -34 0 -4 -20 -11 -45
-14 -24 -4 -47 -12 -51 -17 -3 -6 -12 -8 -20 -5 -17 7 -18 -6 -2 -22 9 -9 8
-12 -7 -12 -13 0 -26 13 -35 33 -13 27 -24 34 -70 45 -30 8 -65 24 -79 38 -13
13 -27 24 -31 24 -11 0 -21 -30 -14 -41 3 -5 -4 -24 -15 -43 -12 -18 -21 -41
-21 -50 0 -10 -4 -14 -10 -11 -6 4 -10 -6 -10 -22 0 -23 10 -37 49 -66 26 -20
54 -37 62 -37 8 0 0 -12 -17 -28 -17 -15 -34 -35 -37 -44 -7 -19 -47 -25 -47
-7 0 6 -12 9 -27 7 -25 -3 -28 1 -35 37 -11 63 17 175 63 245 31 48 37 66 34
95 -4 29 -2 35 14 35 11 0 23 5 26 10 4 6 15 8 26 5 10 -4 31 -8 47 -10z m-23
-175 c3 -5 -1 -10 -10 -10 -9 0 -13 5 -10 10 3 6 8 10 10 10 2 0 7 -4 10 -10z
m325 -50 c0 -5 -2 -10 -4 -10 -3 0 -8 5 -11 10 -3 6 -1 10 4 10 6 0 11 -4 11
-10z m98 -58 l-3 -37 -12 38 c-13 44 -7 81 9 53 5 -9 8 -33 6 -54z m-318 -58
c0 -14 4 -22 10 -19 13 8 50 -13 50 -29 0 -8 -12 -17 -26 -20 -33 -9 -54 16
-51 61 2 39 17 45 17 7z m319 -47 c0 -48 -27 -144 -28 -104 -1 23 -18 22 -26
-3 -3 -11 -12 -20 -20 -20 -7 0 -15 -8 -18 -17 -2 -10 -4 -2 -4 17 0 19 2 29
4 23 6 -18 23 -16 23 2 0 8 -7 15 -15 15 -8 0 -15 5 -15 11 0 5 -5 7 -11 3 -8
-4 -9 0 -4 15 4 15 3 19 -7 16 -13 -5 -44 32 -35 42 3 2 21 1 40 -2 24 -5 38
-15 46 -32 9 -19 15 -22 25 -14 7 6 16 8 19 4 4 -3 7 19 7 51 0 36 4 55 10 51
6 -3 10 -30 9 -58z m-349 17 c0 -2 -9 -4 -21 -4 -11 0 -18 4 -14 10 5 8 35 3
35 -6z m137 -30 c-3 -3 -12 -4 -19 -1 -8 3 -5 6 6 6 11 1 17 -2 13 -5z m-192
-54 c3 -5 1 -10 -4 -10 -6 0 -11 5 -11 10 0 6 2 10 4 10 3 0 8 -4 11 -10z
m112 -26 c-3 -3 -12 -4 -19 -1 -8 3 -5 6 6 6 11 1 17 -2 13 -5z m-210 -44 c-1
-17 -5 -30 -9 -30 -5 0 -8 -8 -8 -17 0 -10 -9 0 -20 22 -21 42 -17 62 6 31 13
-19 14 -19 14 8 0 15 4 25 10 21 5 -3 8 -19 7 -35z m218 15 c28 -4 57 -11 65
-15 22 -12 -67 -33 -108 -25 -36 7 -82 32 -82 44 0 9 58 7 125 -4z m171 -40
c-3 -9 -10 -13 -16 -10 -6 4 -5 11 3 20 15 16 22 11 13 -10z m-221 -25 c109
-17 110 -17 83 -46 -13 -13 -38 -27 -56 -30 -37 -7 -53 -24 -23 -24 11 0 23 5
26 10 7 11 49 9 61 -3 4 -4 -7 -7 -23 -7 -25 0 -34 -6 -44 -28 -7 -18 -19 -28
-31 -27 -24 2 -59 40 -52 58 2 7 1 24 -4 38 -5 13 -9 27 -8 30 0 4 -7 16 -17
26 -18 21 -12 40 7 23 7 -5 43 -14 81 -20z m-104 -58 c12 -20 12 -24 -1 -32
-20 -12 -49 38 -43 74 l5 27 12 -23 c7 -13 19 -33 27 -46z m298 19 c-1 -17 -3
-20 -6 -8 -7 25 -20 21 -38 -12 -19 -37 -35 -48 -35 -24 0 25 50 82 67 76 7
-3 12 -17 12 -32z"/>
<path d="M1554 591 c4 -6 16 -11 27 -11 12 0 19 -7 19 -20 0 -11 5 -20 10 -20
6 0 10 4 10 9 0 5 10 13 23 17 20 7 19 8 -13 14 -19 4 -46 10 -59 14 -16 6
-21 5 -17 -3z"/>
<path d="M1308 346 c-26 -7 -50 -11 -53 -8 -12 12 -4 -53 11 -83 11 -24 20
-32 31 -28 11 4 14 2 9 -5 -5 -8 -2 -10 9 -6 9 4 14 9 11 12 -3 2 2 18 10 34
13 24 29 99 21 97 -1 0 -23 -6 -49 -13z"/>
<path d="M1540 324 c-14 -8 -18 -13 -10 -13 24 1 55 15 44 21 -5 2 -20 -1 -34
-8z"/>
</g>
</svg>
